<svg width="96" height="96" xmlns="http://www.w3.org/2000/svg" xmlns:xlink="http://www.w3.org/1999/xlink" overflow="hidden"><defs><clipPath id="clip0"><rect x="0" y="0" width="96" height="96"/></clipPath></defs><g clip-path="url(#clip0)"><path d="M76 60 20 60 20 26 76 26 76 60ZM82 24C82 21.8 80.2 20 78 20L18 20C15.8 20 14 21.8 14 24L14 66 82 66 82 24Z"/><path d="M54 70 54 71C54 71.6 53.6 72 53 72L43 72C42.4 72 42 71.6 42 71L42 70 2 70 2 72C2 74.2 3.8 76 6 76L90 76C92.2 76 94 74.2 94 72L94 70 54 70Z"/></g></svg>